<svg id="Calque_1" data-name="Calque 1" xmlns="http://www.w3.org/2000/svg" viewBox="0 0 252.7 179.48"><defs><style>.cls-1{fill:#093f4d;}.cls-2{fill:#368ecd;}</style></defs><polygon class="cls-1" points="118.9 0 65.98 30.12 71.84 33.44 112.53 56.84 112.53 64.64 66.45 38.54 66.45 45.36 118.69 75.73 118.69 53.28 92.1 37.98 118.9 22.42 118.9 0"/><polygon class="cls-1" points="179.59 74.13 138.8 50.67 138.8 42.86 184.88 68.96 184.88 62.14 132.63 31.77 132.63 54.23 159.24 69.53 132.43 85.08 132.43 107.51 185.35 77.39 179.59 74.13"/><circle class="cls-2" cx="143.21" cy="11.17" r="10.78"/><circle class="cls-2" cx="108.12" cy="95.57" r="10.78"/><path class="cls-1" d="M169.36,653.47h12.5c14.08,0,22.54,7.87,22.54,23.64s-8.46,24.09-22.09,24.09H169.36Zm12,40.84c9.11,0,14.32-5.45,14.32-17.2s-5.21-16.75-14.32-16.75h-3.49v33.95Z" transform="translate(-169.36 -522.6)"/><path class="cls-1" d="M211.91,683.22c0-11.69,8.88-18.75,18.48-18.75,10.7,0,16.63,7.1,16.63,17a29,29,0,0,1-.37,4.24H217.93v-6H241.2l-1.62,1.86c0-7.08-3.33-10.68-8.94-10.68-5.93,0-10.5,4.27-10.5,12.27,0,8.34,5,12.32,12.48,12.32a19.5,19.5,0,0,0,10-2.93l2.89,5.23a26.11,26.11,0,0,1-14.05,4.23C220.54,702.07,211.91,695.16,211.91,683.22Z" transform="translate(-169.36 -522.6)"/><path class="cls-1" d="M254.18,665.34h8.54l6.91,18.55c1.28,3.61,2.44,7.22,3.6,10.83h.29c1.16-3.61,2.22-7.22,3.55-10.83L284,665.34h8.09l-14,35.86h-9.61Z" transform="translate(-169.36 -522.6)"/><path class="cls-2" d="M298.34,677.08c0-15.59,7.65-24.56,18.59-24.56s18.58,9,18.58,24.56c0,15.84-7.64,25-18.58,25S298.34,692.92,298.34,677.08Zm29.61,0c0-11.49-4.38-18.15-11-18.15s-11,6.66-11,18.15c0,11.74,4.39,18.58,11,18.58S328,688.82,328,677.08Z" transform="translate(-169.36 -522.6)"/><path class="cls-2" d="M345.22,665.53h5.95l.57,5.68h.3c3.57-3.66,7.63-6.56,13.14-6.56,8.34,0,12.14,5.13,12.14,14.42V701.2h-7.27V680c0-6.22-2.09-9.1-7.38-9.1-3.88,0-6.5,1.91-10.18,5.68v24.6h-7.27Z" transform="translate(-169.36 -522.6)"/><path class="cls-2" d="M387.35,683.3c0-11.61,8.75-18.65,18.29-18.65,10.46,0,16.42,6.88,16.42,16.84a26.1,26.1,0,0,1-.33,4H392.38v-5.33H417.2l-1.57,1.77c0-7.72-3.74-11.6-9.79-11.6-6.24,0-11.36,4.61-11.36,13,0,8.76,5.49,13.08,13.16,13.08a19.34,19.34,0,0,0,10.42-3.14l2.54,4.6a25.16,25.16,0,0,1-13.88,4.23C395.9,702.07,387.35,695.18,387.35,683.3Z" transform="translate(-169.36 -522.6)"/></svg>